<?xml version="1.0" encoding="utf-8"?>
<!-- Generator: Adobe Illustrator 26.0.1, SVG Export Plug-In . SVG Version: 6.00 Build 0)  -->
<svg version="1.1" id="Layer_1" xmlns="http://www.w3.org/2000/svg" xmlns:xlink="http://www.w3.org/1999/xlink" x="0px" y="0px"
	 viewBox="0 0 176.8 142.5" style="enable-background:new 0 0 176.8 142.5;" xml:space="preserve">
<style type="text/css">
	.st0{clip-path:url(#SVGID_00000176750642432699103760000010949720909575005587_);}
	.st1{fill:url(#SVGID_00000121999801003225486290000005680494551911333796_);}
	.st2{fill:#074367;}
</style>
<g>
	<defs>
		<path id="SVGID_1_" d="M86.5,67.5c-0.9-10-8.9-17.9-18.9-18.8C68.5,58.7,76.5,66.6,86.5,67.5 M90,67.5c10-0.9,18-8.8,18.9-18.8
			C98.9,49.5,90.9,57.5,90,67.5 M108.2,67.2c10-0.9,18-8.8,18.9-18.8l0,0C117.1,49.3,109.1,57.2,108.2,67.2 M68.3,67.2
			c-0.9-10-8.9-17.9-18.9-18.8C50.3,58.5,58.3,66.4,68.3,67.2 M83.2,46.9c0,5,1.8,9.7,5,13.5c6.7-7.8,6.7-19.2,0-27
			C85,37.2,83.2,42,83.2,46.9 M86.5,26.4c-10,0.8-18,8.8-18.9,18.8C77.6,44.3,85.6,36.4,86.5,26.4z M90,26.4
			c0.9,10,8.9,17.9,18.9,18.8C108,35.2,100,27.2,90,26.4z"/>
	</defs>
	<clipPath id="SVGID_00000099657760579768414790000009762623383637638326_">
		<use xlink:href="#SVGID_1_"  style="overflow:visible;"/>
	</clipPath>
	<g style="clip-path:url(#SVGID_00000099657760579768414790000009762623383637638326_);">
		
			<linearGradient id="SVGID_00000180348931013462267790000005523736765083642518_" gradientUnits="userSpaceOnUse" x1="-130.644" y1="675.9967" x2="-130.534" y2="675.9967" gradientTransform="matrix(1.123675e-14 -183.51 -183.51 -1.123675e-14 124140.3906 -23906.832)">
			<stop  offset="0" style="stop-color:#064367"/>
			<stop  offset="0" style="stop-color:#064367"/>
			<stop  offset="1" style="stop-color:#188F7A"/>
		</linearGradient>
		
			<rect x="49.4" y="26.4" style="fill:url(#SVGID_00000180348931013462267790000005523736765083642518_);" width="77.7" height="41.1"/>
	</g>
</g>
<path class="st2" d="M122.7,100c0,0.5,0.1,0.9,0.4,1.3h-1v1.6h5v-1.6h-2.4c-0.2-0.3-0.3-0.6-0.3-1c0-0.7,0.5-1,1.2-1
	c0.3,0,0.7,0,1,0.1l0.3-1.6c-0.5-0.1-1-0.2-1.5-0.2c-1.3-0.2-2.5,0.7-2.7,2C122.7,99.8,122.7,99.9,122.7,100 M62.5,85v7.2
	c0,3.8-1.8,5-4.7,5c-2.9,0-4.8-1.5-4.8-4.5c0-1.4,0.3-2.7,0.9-4l-3.1-1c-0.8,1.7-1.3,3.6-1.3,5.5c0,3.6,2.5,7.2,8.2,7.2
	c4.9,0,8.3-2.3,8.3-7.4V85H62.5z M56.2,81.2c0,1,0.8,1.9,1.8,1.9c0,0,0.1,0,0.1,0c1,0,1.8-0.8,1.9-1.7c0-0.1,0-0.1,0-0.2
	c0.1-1-0.7-1.8-1.7-1.9c-0.1,0-0.1,0-0.2,0c-1-0.1-1.8,0.7-1.9,1.7C56.2,81.1,56.2,81.2,56.2,81.2 M70,75.8v14
	c0,3.8,1.7,5.6,6.6,5.6h2.9c2.4,0,3.8-0.6,4.6-1.4c1,1.1,2.5,1.4,4.2,1.4c1.6,0.1,3.1-0.4,4.3-1.4c1.1,0.9,2.5,1.5,4,1.4
	c1.7,0.1,3.3-0.5,4.4-1.8c0.8,1.1,2.2,1.8,4.3,1.8h13.1c1.7-7.4-0.2-12.8-7.5-12.8c-1.4,0-2.8,0.2-4.1,0.7l0.8,3c1-0.3,2-0.4,3-0.4
	c4.7,0,5.2,3.8,4.7,6.4h-10c-2,0-3.2-0.9-3.2-3v-6.4h-3.5v6.3c0,2.1-0.5,3.1-2.4,3.1c-1.6,0-2.4-0.7-2.4-2V85h-3.5v4.2
	c0,2.2-0.6,3-2.5,3c-1.4,0-2.3-0.5-2.3-2V85H82v4.2c0,2.2-0.7,3-2.5,3h-2.9c-2.2,0-3.1-0.8-3.1-2.5v-14L70,75.8z M122.8,95.4h3.5
	V75.8h-3.5V95.4z"/>
<path class="st2" d="M49.7,112.6c0-0.3,0.1-0.7,0.2-1l0.5,0.1c-0.1,0.2-0.1,0.5-0.1,0.7c0,0.8,0.6,1.1,1.8,1.1s1.8-0.3,1.8-0.7
	c0-0.6-1.8-0.7-1.8-1.8c0-0.7,0.6-1.2,1.5-1.2c0.3,0,0.5,0,0.8,0.1l-0.1,0.5c-0.2-0.1-0.5-0.1-0.7-0.1c-0.6,0-0.9,0.2-0.9,0.6
	c0,0.8,1.8,0.7,1.8,1.8c0,0.4-0.3,0.8-0.6,0.9c-0.5,0.3-1.1,0.4-1.7,0.4C50.5,114.2,49.7,113.7,49.7,112.6 M51.2,115.2
	c0-0.2,0.1-0.4,0.3-0.4c0,0,0,0,0,0c0.2,0,0.4,0.2,0.4,0.4s-0.2,0.4-0.4,0.4C51.4,115.5,51.2,115.4,51.2,115.2
	C51.2,115.2,51.2,115.2,51.2,115.2 M52.2,115.2c0-0.2,0.2-0.4,0.4-0.4c0.2,0,0.4,0.2,0.4,0.4s-0.2,0.4-0.4,0.4
	C52.4,115.5,52.2,115.4,52.2,115.2C52.2,115.2,52.2,115.2,52.2,115.2"/>
<path class="st2" d="M57.5,112.5c0.1,0,0.1,0.1,0.1,0.3s0,0.3-0.1,0.3h-1l0,0c-0.1,0.7-0.7,1.3-1.5,1.3l-0.1-0.5
	c0.8-0.1,1-0.4,1-1.2V110h0.6v2.4H57.5z"/>
<path class="st2" d="M60,112.7c0,0.2,0,0.3-0.2,0.3c-0.5,0.1-0.9-0.1-1.2-0.5c-0.3,0.4-0.7,0.6-1.2,0.5l0,0v-0.5l0,0
	c0.6,0,0.8-0.3,0.8-1V110h0.6v1.6c0,0.6,0.3,0.8,0.9,0.8C59.9,112.5,60,112.6,60,112.7 M58.4,114c0,0.2-0.1,0.4-0.3,0.4
	c-0.2,0-0.4-0.1-0.4-0.3c0,0,0-0.1,0-0.1c0-0.2,0.1-0.4,0.3-0.4c0.2,0,0.4,0.1,0.4,0.3C58.4,113.9,58.4,114,58.4,114 M59.4,114
	c0,0.2-0.1,0.3-0.3,0.4c0,0,0,0,0,0c-0.2,0-0.4-0.2-0.4-0.3c0,0,0,0,0,0c0-0.2,0.1-0.4,0.3-0.4c0,0,0,0,0,0
	C59.2,113.6,59.4,113.8,59.4,114C59.4,114,59.4,114,59.4,114"/>
<path class="st2" d="M63.8,112.5c0.1,0,0.1,0.1,0.1,0.3s0,0.3-0.1,0.3h-4v-0.5h2.5c0.1-0.6,0.1-2-1.4-2c-0.3,0-0.5,0.1-0.8,0.1
	l-0.1-0.5c0.3-0.1,0.7-0.2,1-0.2c0.6-0.1,1.2,0.2,1.6,0.7c0.3,0.6,0.4,1.2,0.3,1.8L63.8,112.5z M60.7,108.8c0-0.2,0.1-0.4,0.3-0.4
	c0.2,0,0.4,0.1,0.4,0.3c0,0,0,0.1,0,0.1c0,0.1,0,0.2-0.1,0.3C61.2,109.2,60.7,109.1,60.7,108.8"/>
<path class="st2" d="M63.8,112.5c0.2,0,0.5,0,0.7-0.2c0.1-0.2,0.2-0.5,0.2-0.8v-4h0.6v4.2c0,0.8-0.5,1.3-1.4,1.3V112.5z"/>
<rect x="66.3" y="107.5" class="st2" width="0.6" height="5.5"/>
<path class="st2" d="M74.4,112.5c0.1,0,0.1,0.1,0.1,0.3s0,0.3-0.1,0.3h-0.9c-0.3,0.8-1.1,1.3-1.9,1.2c-0.5,0-1-0.1-1.4-0.5
	c-0.4-0.3-0.6-0.8-0.6-1.2c0-0.4,0.1-0.9,0.3-1.3l0.5,0.2c-0.1,0.3-0.2,0.7-0.2,1.1c0,0.8,0.5,1.2,1.4,1.2c0.9,0,1.4-0.4,1.4-1.3
	v-4.8h0.6v5L74.4,112.5z"/>
<path class="st2" d="M78.7,112.5c0.1,0,0.1,0.1,0.1,0.3s0,0.3-0.1,0.3h-1.1c-0.4,0.3-0.8,0.4-1.2,0.4h-0.4c-0.1-0.1-0.3-0.2-0.4-0.4
	h-1.1v-0.5h0.7c-0.1-0.2-0.1-0.4-0.1-0.7c0-0.4,0.2-0.8,0.5-1.1c0.3-0.3,0.7-0.4,1.2-0.4c0.4,0,0.8,0.1,1.1,0.4
	c0.2,0.3,0.4,0.7,0.3,1.1c0,0.2,0,0.4-0.1,0.7L78.7,112.5z M76.5,112.8c0.6,0,1-0.4,1.1-0.9c0,0,0-0.1,0-0.1
	c0.1-0.5-0.3-0.9-0.7-0.9c-0.1,0-0.1,0-0.2,0c-0.5-0.1-0.9,0.3-1,0.8c0,0.1,0,0.1,0,0.2c0,0.4,0.2,0.7,0.4,1L76.5,112.8z"/>
<path class="st2" d="M82.9,112.5c0.1,0,0.1,0.1,0.1,0.3S83,113,82.9,113h-0.5c-0.6,0-1.2-0.1-1.8-0.3c-0.6,0.2-1.2,0.3-1.8,0.3h-0.2
	v-0.5H79c0.4,0,0.8,0,1.2-0.1c-0.2-0.3-0.4-0.5-0.7-0.9l-0.4-0.4c0-0.2,0.1-0.4,0.1-0.6c0.5-0.3,1-0.5,1.6-0.5
	c0.9,0,1.4,0.4,1.4,1.1c0,0.6-0.4,1.1-0.9,1.3c0.3,0.1,0.7,0.1,1,0.1L82.9,112.5z M79.7,110.8c0.4,0.4,0.8,0.8,1.2,1.2
	c0.6-0.3,0.9-0.6,0.9-1s-0.3-0.6-0.9-0.6C80.4,110.5,80,110.6,79.7,110.8L79.7,110.8z"/>
<path class="st2" d="M85.4,112.7c0,0.2-0.1,0.3-0.1,0.3c-0.4,0-0.9-0.1-1.2-0.5c-0.3,0.4-0.7,0.5-1.2,0.5v-0.5c0.2,0,0.5,0,0.7-0.2
	c0.1-0.2,0.2-0.5,0.2-0.8v-4h0.6v4.1c0,0.6,0.3,0.8,0.9,0.8C85.3,112.4,85.4,112.5,85.4,112.7"/>
<path class="st2" d="M85.2,112.5c0.2,0,0.5,0,0.7-0.2c0.1-0.2,0.2-0.5,0.2-0.8v-4h0.6v4.2c0,0.8-0.5,1.3-1.4,1.3L85.2,112.5z"/>
<path class="st2" d="M93.4,112.7c0,0.2-0.1,0.3-0.1,0.3c-0.7,0-1.1-0.1-1.2-0.4c-0.3,0.1-0.7,0.2-1,0.2c-0.9,0-1.5-0.5-1.5-1.3
	s0.7-1.5,1.7-1.5h1.2v1.7c0,0.6,0.2,0.7,0.8,0.7C93.3,112.5,93.4,112.5,93.4,112.7 M91.9,110.6h-0.7c-0.6,0-1,0.3-1,0.9
	s0.3,0.8,1,0.8c0.3,0,0.5-0.1,0.8-0.2L91.9,110.6z M90.4,108.8c0-0.2,0.2-0.4,0.4-0.4s0.4,0.2,0.4,0.4c0,0.2-0.2,0.4-0.4,0.4
	c0,0,0,0,0,0C90.5,109.2,90.4,109.1,90.4,108.8C90.3,108.9,90.3,108.9,90.4,108.8 M91.4,108.8c0-0.2,0.2-0.4,0.4-0.4
	s0.4,0.2,0.4,0.4s-0.2,0.4-0.4,0.4C91.5,109.2,91.4,109.1,91.4,108.8C91.3,108.9,91.3,108.8,91.4,108.8"/>
<path class="st2" d="M95.8,112.7c0,0.2-0.1,0.3-0.2,0.3c-0.5,0.1-0.9-0.1-1.2-0.5c-0.3,0.4-0.7,0.6-1.2,0.5l0,0v-0.5l0,0
	c0.6,0,0.8-0.3,0.8-1V110h0.6v1.6c0,0.6,0.3,0.8,0.9,0.8C95.7,112.5,95.8,112.6,95.8,112.7 M94.2,114c0,0.2-0.1,0.4-0.3,0.4
	c0,0,0,0,0,0c-0.2,0-0.4-0.2-0.4-0.3c0,0,0,0,0,0c0-0.2,0.1-0.4,0.3-0.4c0.2,0,0.4,0.1,0.4,0.3C94.2,113.9,94.2,114,94.2,114
	 M95.2,114c0,0.2-0.1,0.4-0.3,0.4c-0.2,0-0.4-0.1-0.4-0.3c0,0,0-0.1,0-0.1c0-0.2,0.1-0.4,0.3-0.4c0.2,0,0.4,0.1,0.4,0.3
	C95.2,113.9,95.2,114,95.2,114"/>
<path class="st2" d="M98.1,112.7c0,0.2-0.1,0.3-0.1,0.3c-0.5,0.1-0.9-0.1-1.2-0.5c-0.3,0.4-0.8,0.6-1.2,0.5v-0.5
	c0.6,0,0.9-0.3,0.9-1V110h0.6v1.6c0,0.6,0.3,0.8,1,0.8C98.1,112.5,98.2,112.5,98.1,112.7 M96.5,108.8c0-0.2,0.1-0.4,0.3-0.4
	c0.2,0,0.4,0.1,0.4,0.3c0,0,0,0.1,0,0.1c0,0.1,0,0.2-0.1,0.3C96.9,109.3,96.4,109.2,96.5,108.8"/>
<path class="st2" d="M103,110.5c0.3,0.4,0.4,0.8,0.4,1.3c0,0.4-0.1,0.8-0.2,1.2H98v-0.5h0.7v-5h0.6v4.1c0.5-0.9,1.5-1.5,2.5-1.6
	C102.2,109.9,102.7,110.1,103,110.5 M102.7,112.4c0.1-0.2,0.1-0.4,0.1-0.7c0-0.8-0.4-1.3-1.1-1.3c-0.5,0-0.9,0.2-1.2,0.5
	c-0.5,0.4-0.9,0.9-1.2,1.4L102.7,112.4z"/>
<path class="st2" d="M104.7,113.7c1.2,0.1,1.8-0.2,1.8-0.9c-0.2,0.1-0.5,0.2-0.8,0.2c-0.7,0.1-1.4-0.5-1.5-1.2c0-0.1,0-0.2,0-0.2
	c0-0.4,0.1-0.8,0.4-1.1c0.5-0.6,1.4-0.7,2-0.1c0.3,0.3,0.5,0.7,0.5,1.1v1.3c0,0.4-0.2,0.8-0.5,1.1c-0.4,0.3-1,0.5-1.5,0.4h-0.3
	L104.7,113.7z M106.5,112.4v-0.8c0-0.7-0.3-1.1-0.8-1.1c-0.5,0-0.9,0.4-0.9,0.9c0,0,0,0.1,0,0.1c0,0.6,0.3,1,1,1
	C106.1,112.6,106.3,112.5,106.5,112.4"/>
<path class="st2" d="M113.7,112.7c0,0.2,0,0.3-0.2,0.3c-0.7,0-1.1-0.1-1.2-0.4c-0.3,0.1-0.7,0.2-1,0.2c-0.9,0-1.5-0.5-1.5-1.3
	c0-0.8,0.7-1.5,1.5-1.5c0.1,0,0.1,0,0.2,0h1.2v1.7c0,0.6,0.2,0.7,0.8,0.7C113.6,112.5,113.7,112.6,113.7,112.7 M112.2,110.6h-0.7
	c-0.6,0-1,0.3-1,0.9s0.3,0.8,1,0.8c0.3,0,0.5-0.1,0.8-0.2L112.2,110.6z M110.7,108.8c0-0.2,0.1-0.4,0.3-0.4c0,0,0,0,0,0
	c0.2,0,0.4,0.2,0.4,0.4s-0.2,0.4-0.4,0.4C110.8,109.2,110.7,109.1,110.7,108.8C110.7,108.9,110.7,108.8,110.7,108.8 M111.7,108.8
	c0-0.2,0.1-0.4,0.3-0.4c0,0,0,0,0,0c0.2,0,0.4,0.2,0.4,0.4s-0.2,0.4-0.4,0.4C111.8,109.2,111.7,109.1,111.7,108.8
	C111.7,108.9,111.7,108.8,111.7,108.8"/>
<path class="st2" d="M120.7,112.5c0.1,0,0.2,0.1,0.2,0.3c0,0.2-0.1,0.3-0.2,0.3h-5.1c-0.4,0.1-0.8-0.1-1-0.4
	c-0.2,0.3-0.5,0.4-1.1,0.4v-0.5c0.5,0,0.7-0.2,0.7-0.9v-1h0.6v1.3c0,0.3,0.1,0.5,0.4,0.6c0.9-1.6,1.9-2.5,3-2.5s1.6,0.7,1.6,1.8
	c0,0.2,0,0.5-0.1,0.7L120.7,112.5z M119.2,112.5c0.1-0.2,0.1-0.4,0.1-0.7c0-0.8-0.4-1.3-1.1-1.3s-1.6,0.7-2.4,2L119.2,112.5z"/>
<path class="st2" d="M123.2,112.7c0,0.2,0,0.3-0.1,0.3c-0.5,0.1-0.9-0.1-1.2-0.5c-0.3,0.4-0.8,0.6-1.2,0.5v-0.5c0.6,0,0.9-0.3,0.9-1
	V110h0.6v1.6c0,0.6,0.3,0.8,0.9,0.8C123.1,112.5,123.2,112.5,123.2,112.7 M121.5,108.8c0-0.2,0.1-0.4,0.3-0.4c0.2,0,0.4,0.1,0.4,0.3
	c0,0,0,0.1,0,0.1c0,0.1,0,0.2-0.1,0.3C121.9,109.3,121.4,109.2,121.5,108.8"/>
<path class="st2" d="M125.2,110c0.4,0,0.8,0.1,1.1,0.4c0.3,0.3,0.4,0.7,0.4,1.1c0,0.9-0.5,1.5-1.7,1.5h-1.9v-0.5h0.9
	c-0.2-0.3-0.3-0.6-0.3-1c0-0.4,0.2-0.8,0.4-1.1C124.4,110.1,124.8,109.9,125.2,110 M125.1,112.4c0.5,0.1,0.9-0.3,1-0.8
	c0-0.1,0-0.1,0-0.2c0-0.5-0.4-0.9-0.9-0.9c-0.5,0-0.9,0.4-0.9,0.9c0,0,0,0,0,0c0,0.4,0.1,0.7,0.4,1H125.1z"/>
</svg>
